<?xml version="1.0" encoding="UTF-8"?>
<svg xmlns="http://www.w3.org/2000/svg" xmlns:xlink="http://www.w3.org/1999/xlink" viewBox="0 0 48 48" width="48px" height="48px">
<g id="surface34423220">
<path style=" stroke:none;fill-rule:nonzero;fill:rgb(100%,100%,100%);fill-opacity:1;" d="M 24 48 C 10.746094 48 0 37.253906 0 24 C 0 10.746094 10.746094 0 24 0 C 37.253906 0 48 10.746094 48 24 C 48 37.253906 37.253906 48 24 48 Z M 24 48 "/>
<path style=" stroke:none;fill-rule:nonzero;fill:rgb(87.843138%,87.843138%,87.843138%);fill-opacity:1;" d="M 10.679688 35.878906 L 37.320312 35.878906 C 38.710938 35.878906 39.839844 34.75 39.839844 33.359375 L 39.839844 14.640625 C 39.839844 13.25 38.710938 12.121094 37.320312 12.121094 L 10.679688 12.121094 C 9.289062 12.121094 8.160156 13.25 8.160156 14.640625 L 8.160156 33.359375 C 8.160156 34.75 9.289062 35.878906 10.679688 35.878906 Z M 10.679688 35.878906 "/>
<path style=" stroke:none;fill-rule:nonzero;fill:rgb(85.09804%,85.09804%,85.09804%);fill-opacity:1;" d="M 25.441406 35.878906 L 37.320312 35.878906 C 38.710938 35.878906 39.839844 34.75 39.839844 33.359375 L 39.839844 14.640625 C 39.839844 13.25 38.710938 12.121094 37.320312 12.121094 L 10.679688 12.121094 C 9.289062 12.121094 8.160156 13.25 8.160156 14.640625 Z M 25.441406 35.878906 "/>
<path style=" stroke:none;fill-rule:nonzero;fill:rgb(93.333334%,93.333334%,93.333334%);fill-opacity:1;" d="M 11.578125 35.878906 L 37.320312 35.878906 C 38.710938 35.878906 39.839844 34.75 39.839844 33.359375 L 39.839844 15 Z M 11.578125 35.878906 "/>
<path style=" stroke:none;fill-rule:nonzero;fill:rgb(87.843138%,87.843138%,87.843138%);fill-opacity:1;" d="M 25.257812 35.878906 L 37.320312 35.878906 C 38.710938 35.878906 39.839844 34.75 39.839844 33.359375 L 39.839844 15 L 20.234375 29.484375 Z M 25.257812 35.878906 "/>
<path style=" stroke:none;fill-rule:nonzero;fill:rgb(79.215688%,21.568628%,21.568628%);fill-opacity:1;" d="M 37.320312 13.558594 L 10.679688 13.558594 C 9.289062 13.558594 8.160156 13.25 8.160156 14.640625 L 8.160156 33.359375 C 8.160156 34.75 9.289062 35.878906 10.679688 35.878906 L 11.761719 35.878906 L 11.761719 15.359375 L 36.238281 15.359375 L 36.238281 35.878906 L 37.320312 35.878906 C 38.710938 35.878906 39.839844 34.75 39.839844 33.359375 L 39.839844 14.640625 C 39.839844 13.25 38.710938 13.558594 37.320312 13.558594 Z M 37.320312 13.558594 "/>
<path style=" stroke:none;fill-rule:nonzero;fill:rgb(96.078432%,96.078432%,96.078432%);fill-opacity:1;" d="M 37.320312 12.121094 L 10.679688 12.121094 C 9.289062 12.121094 8.160156 13.226562 8.160156 14.640625 C 8.160156 15.507812 9.253906 16.265625 9.253906 16.265625 L 24 26.703125 L 38.746094 16.265625 C 38.746094 16.265625 39.839844 15.507812 39.839844 14.640625 C 39.839844 13.226562 38.710938 12.121094 37.320312 12.121094 Z M 37.320312 12.121094 "/>
<path style=" stroke:none;fill-rule:nonzero;fill:rgb(90.980393%,30.980393%,29.411766%);fill-opacity:1;" d="M 37.855469 12.179688 L 24 21.839844 L 10.144531 12.179688 C 9.007812 12.421875 8.160156 13.414062 8.160156 14.640625 C 8.160156 15.507812 9.253906 16.265625 9.253906 16.265625 L 24 26.703125 L 38.746094 16.265625 C 38.746094 16.265625 39.839844 15.507812 39.839844 14.640625 C 39.839844 13.414062 38.992188 12.421875 37.855469 12.179688 Z M 37.855469 12.179688 "/>
</g>
</svg>
