<svg xmlns="http://www.w3.org/2000/svg" viewBox="0 0 68 68"><path d="M39.05 54.855c0 .28-.23.5-.5.5H22.06c-.27 0-.5-.22-.5-.5 0-.27.23-.5.5-.5 1 0 1.75-.31 2.3-.95.95-1.1 1.04-2.92 1-4.01h9.89c-.04 1.1.06 2.92 1 4.02.55.63 1.3.94 2.3.94.27 0 .5.23.5.5zm14.15-47.8H7.41c-2.71 0-4.9 2.19-4.9 4.9v31.54c0 2.71 2.19 4.9 4.9 4.9h31.17v-6.13H7.41c-.67 0-1.22-.55-1.22-1.23v-29.08c0-.68.55-1.23 1.22-1.23H53.2c.67 0 1.22.55 1.22 1.23v14.04h3.68v-14.04c0-2.71-2.19-4.9-4.9-4.9zm-22.89 36.97c.71 0 1.29.58 1.29 1.31 0 .72-.58 1.3-1.29 1.3a1.3 1.3 0 0 1-1.31-1.3c0-.73.58-1.31 1.31-1.31z"/><path d="M53.42 11.955v3.81H7.19v-3.81c0-.12.1-.23.22-.23H53.2c.12 0 .22.11.22.23zM31.24 18.768h18.167v1H31.24zM26.899 20.268v4.5a1 1 0 0 1-1 1h-14.33a1 1 0 0 1-1-1v-4.5a1 1 0 0 1 1-1h14.33a1 1 0 0 1 1 1zM31.24 22.018h18.167v1H31.24zM31.24 25.268h5.687v1H31.24zM35.403 30.268v8.19a1 1 0 0 1-1 1h-8.2a1 1 0 0 1-1-1v-8.19a1 1 0 0 1 1-1h8.2a1 1 0 0 1 1 1zm-14.637 0v8.19a1 1 0 0 1-1 1h-8.2a1 1 0 0 1-1-1v-8.19a1 1 0 0 1 1-1h8.2a1 1 0 0 1 1 1zm41.724-3.273H42.58c-1.65 0-3 1.34-3 3v27.95c0 1.65 1.35 3 3 3h19.91c1.66 0 3-1.35 3-3v-27.95c0-1.66-1.34-3-3-3zM52 59.765c-.59 0-1.07-.48-1.07-1.07a1.076 1.076 0 1 1 1.07 1.07zm11.24-4.32c0 .55-.44 1-1 1H42.83c-.55 0-1-.45-1-1v-24.95c0-.56.45-1 1-1h19.41c.56 0 1 .44 1 1v24.95z"/><path d="M44.953 37.457h15.17v9.435h-15.17zM44.953 32.223h15.17v2.506h-15.17zM44.95 52.395h12.32v1H44.95zM44.95 49.395h15.17v1H44.95z"/></svg>